<svg width="182" height="134" viewBox="0 0 182 134" fill="none" xmlns="http://www.w3.org/2000/svg">
<path d="M7.2002 125.6C7.2002 126.1 7.10019 126.6 6.9002 127C6.7002 127.4 6.5002 127.8 6.1002 128.1C5.8002 128.4 5.4002 128.6 4.9002 128.8C4.4002 129 3.9002 129 3.4002 129H1.0002V133.4H0.200195V122.2H3.6002C4.2002 122.2 4.7002 122.3 5.1002 122.4C5.5002 122.6 5.9002 122.8 6.2002 123.1C6.5002 123.4 6.7002 123.7 6.9002 124.2C7.10019 124.6 7.2002 125.1 7.2002 125.6ZM6.4002 125.6C6.4002 124.8 6.2002 124.1 5.7002 123.6C5.2002 123.1 4.5002 122.9 3.6002 122.9H1.0002V128.3H3.5002C4.4002 128.3 5.1002 128.1 5.6002 127.6C6.1002 127.1 6.4002 126.4 6.4002 125.6Z" fill="#186287"/>
<path d="M15.0002 133.6C14.2002 133.6 13.5002 133.5 12.9002 133.2C12.3002 132.9 11.8002 132.5 11.4002 132C11.0002 131.5 10.7002 130.9 10.5002 130.2C10.3002 129.5 10.2002 128.7 10.2002 127.9C10.2002 127.1 10.3002 126.3 10.5002 125.6C10.7002 124.9 11.0002 124.3 11.4002 123.8C11.8002 123.3 12.3002 122.9 12.9002 122.6C13.5002 122.3 14.2002 122.2 15.0002 122.2C15.8002 122.2 16.5002 122.3 17.1002 122.6C17.7002 122.9 18.2002 123.3 18.6002 123.8C19.0002 124.3 19.3002 124.9 19.5002 125.6C19.7002 126.3 19.8002 127.1 19.8002 127.9C19.8002 128.7 19.7002 129.5 19.5002 130.2C19.3002 130.9 19.0002 131.5 18.6002 132C18.2002 132.5 17.7002 132.9 17.1002 133.2C16.5002 133.5 15.8002 133.6 15.0002 133.6ZM15.0002 132.9C15.7002 132.9 16.3002 132.8 16.8002 132.5C17.3002 132.3 17.7002 131.9 18.0002 131.5C18.3002 131.1 18.6002 130.5 18.7002 129.9C18.9002 129.3 18.9002 128.6 18.9002 127.9C18.9002 127.2 18.8002 126.5 18.7002 125.9C18.5002 125.3 18.3002 124.8 18.0002 124.3C17.7002 123.9 17.3002 123.5 16.8002 123.2C16.3002 122.9 15.7002 122.8 15.0002 122.8C14.3002 122.8 13.7002 122.9 13.2002 123.2C12.7002 123.5 12.3002 123.8 12.0002 124.3C11.7002 124.7 11.4002 125.3 11.3002 125.9C11.1002 126.5 11.1002 127.2 11.1002 127.9C11.1002 128.6 11.2002 129.3 11.3002 129.9C11.5002 130.5 11.7002 131.1 12.0002 131.5C12.3002 131.9 12.7002 132.3 13.2002 132.5C13.7002 132.7 14.3002 132.9 15.0002 132.9Z" fill="#186287"/>
<path d="M23.5996 122.2H24.3996V132.7H29.9996V133.4H23.5996V122.2Z" fill="#186287"/>
<path d="M34.3 133.4H33.5V122.2H34.3V133.4Z" fill="#186287"/>
<path d="M43.4002 122.8C42.0002 122.8 40.9002 123.2 40.1002 124.1C39.3002 125 38.9002 126.2 38.9002 127.8C38.9002 128.6 39.0002 129.3 39.2002 129.9C39.4002 130.5 39.7002 131 40.1002 131.5C40.5002 131.9 40.9002 132.2 41.5002 132.5C42.0002 132.7 42.6002 132.8 43.3002 132.8C43.8002 132.8 44.3002 132.7 44.7002 132.6C45.1002 132.5 45.5002 132.3 45.8002 132.2L46.0002 132.9C45.8002 133 45.6002 133.1 45.4002 133.2C45.2002 133.3 45.0002 133.3 44.8002 133.4C44.6002 133.5 44.4002 133.5 44.1002 133.5C43.9002 133.5 43.6002 133.5 43.3002 133.5C42.4002 133.5 41.7002 133.4 41.0002 133.1C40.4002 132.8 39.8002 132.4 39.4002 131.9C39.0002 131.4 38.7002 130.8 38.5002 130.1C38.3002 129.4 38.2002 128.6 38.2002 127.8C38.2002 126.9 38.3002 126.2 38.5002 125.4C38.7002 124.7 39.1002 124.1 39.5002 123.6C39.9002 123.1 40.5002 122.7 41.1002 122.4C41.8002 122.1 42.5002 122 43.4002 122C43.9002 122 44.4002 122.1 44.8002 122.2C45.2002 122.3 45.6002 122.5 45.9002 122.6L45.7002 123.2C45.4002 123.1 45.0002 122.9 44.6002 122.8C44.3002 122.8 43.9002 122.8 43.4002 122.8Z" fill="#186287"/>
<path d="M52.5998 128.1L55.9998 122.2H56.7998L52.8998 128.8V133.5H52.1998V128.8L48.2998 122.2H49.1998L52.5998 128.1Z" fill="#186287"/>
<path d="M67.2998 130.1L66.0998 133.4H65.2998L69.5998 122.2H70.2998L74.5998 133.4H73.7998L72.5998 130.1H67.2998ZM70.6998 125.4L69.8998 123L69.0998 125.4L67.5998 129.4H72.2998L70.6998 125.4Z" fill="#186287"/>
<path d="M82.2 122.8C80.8 122.8 79.7 123.2 78.9 124.1C78.1 125 77.7 126.2 77.7 127.8C77.7 128.6 77.8 129.3 78 129.9C78.2 130.5 78.5 131 78.9 131.5C79.3 131.9 79.7 132.2 80.3 132.5C80.8 132.7 81.4 132.8 82.1 132.8C82.6 132.8 83.1 132.7 83.5 132.6C83.9 132.5 84.3 132.3 84.6 132.2L84.8 132.9C84.6 133 84.4 133.1 84.2 133.2C84 133.3 83.8 133.3 83.6 133.4C83.4 133.5 83.2 133.5 82.9 133.5C82.7 133.5 82.4 133.5 82.1 133.5C81.2 133.5 80.5 133.4 79.8 133.1C79.2 132.8 78.6 132.4 78.2 131.9C77.8 131.4 77.5 130.8 77.3 130.1C77.1 129.4 77 128.6 77 127.8C77 126.9 77.1 126.2 77.3 125.4C77.5 124.7 77.9 124.1 78.3 123.6C78.7 123.1 79.3 122.7 79.9 122.4C80.5 122.1 81.3 122 82.2 122C82.7 122 83.2 122.1 83.6 122.2C84 122.3 84.4 122.5 84.7 122.6L84.5 123.2C84.2 123.1 83.8 122.9 83.4 122.8C83.1 122.8 82.7 122.8 82.2 122.8Z" fill="#186287"/>
<path d="M92.7996 122.8C91.3996 122.8 90.2996 123.2 89.4996 124.1C88.6996 125 88.2996 126.2 88.2996 127.8C88.2996 128.6 88.3996 129.3 88.5996 129.9C88.7996 130.5 89.0996 131 89.4996 131.5C89.8996 131.9 90.2996 132.2 90.8996 132.5C91.3996 132.7 91.9996 132.8 92.6996 132.8C93.1996 132.8 93.6996 132.7 94.0996 132.6C94.4996 132.5 94.8996 132.3 95.1996 132.2L95.3996 132.9C95.1996 133 94.9996 133.1 94.7996 133.2C94.5996 133.3 94.3996 133.3 94.1996 133.4C93.9996 133.5 93.7996 133.5 93.4996 133.5C93.2996 133.5 92.9996 133.5 92.6996 133.5C91.7996 133.5 91.0996 133.4 90.3996 133.1C89.7996 132.8 89.1996 132.4 88.7996 131.9C88.3996 131.4 88.0996 130.8 87.8996 130.1C87.6996 129.4 87.5996 128.6 87.5996 127.8C87.5996 126.9 87.6996 126.2 87.8996 125.4C88.0996 124.7 88.4996 124.1 88.8996 123.6C89.2996 123.1 89.8996 122.7 90.4996 122.4C91.1996 122.1 91.8996 122 92.7996 122C93.2996 122 93.7996 122.1 94.1996 122.2C94.5996 122.3 94.9996 122.5 95.2996 122.6L95.0996 123.2C94.7996 123.1 94.3996 122.9 93.9996 122.8C93.5996 122.8 93.1996 122.8 92.7996 122.8Z" fill="#186287"/>
<path d="M99 122.2H105.6V122.9H99.8V127.3H105.2V128H99.8V132.7H105.7V133.4H99V122.2Z" fill="#186287"/>
<path d="M109.5 122.2H110.3V132.7H115.9V133.4H109.5V122.2Z" fill="#186287"/>
<path d="M119.4 122.2H126V122.9H120.2V127.3H125.6V128H120.2V132.7H126.1V133.4H119.4V122.2Z" fill="#186287"/>
<path d="M137.4 125.4C137.4 126.3 137.1 127 136.6 127.6C136.1 128.1 135.4 128.5 134.5 128.6L137.4 133.4H136.5L133.6 128.7H130.6V133.4H129.8V122.2H133.7C134.3 122.2 134.8 122.3 135.2 122.4C135.6 122.6 136 122.8 136.3 123.1C136.6 123.4 136.8 123.7 137 124.1C137.3 124.5 137.4 125 137.4 125.4ZM136.6 125.4C136.6 124.6 136.4 124 135.9 123.5C135.4 123.1 134.7 122.8 133.8 122.8H130.7V127.9H133.7C134.6 127.9 135.3 127.7 135.8 127.2C136.4 126.9 136.6 126.2 136.6 125.4Z" fill="#186287"/>
<path d="M142.1 130.1L140.9 133.4H140.1L144.4 122.2H145.1L149.4 133.4H148.6L147.4 130.1H142.1ZM145.5 125.4L144.7 123L143.9 125.4L142.4 129.4H147.1L145.5 125.4Z" fill="#186287"/>
<path d="M158.4 122.9H154.9V133.4H154.1V122.9H150.6V122.2H158.4V122.9Z" fill="#186287"/>
<path d="M165.6 133.6C164.8 133.6 164.1 133.5 163.5 133.2C162.9 132.9 162.4 132.5 162 132C161.6 131.5 161.3 130.9 161.1 130.2C160.9 129.5 160.8 128.7 160.8 127.9C160.8 127.1 160.9 126.3 161.1 125.6C161.3 124.9 161.6 124.3 162 123.8C162.4 123.3 162.9 122.9 163.5 122.6C164.1 122.3 164.8 122.2 165.6 122.2C166.4 122.2 167.1 122.3 167.7 122.6C168.3 122.9 168.8 123.3 169.2 123.8C169.6 124.3 169.9 124.9 170.1 125.6C170.3 126.3 170.4 127.1 170.4 127.9C170.4 128.7 170.3 129.5 170.1 130.2C169.9 130.9 169.6 131.5 169.2 132C168.8 132.5 168.3 132.9 167.7 133.2C167.1 133.4 166.4 133.6 165.6 133.6ZM165.6 132.9C166.3 132.9 166.9 132.8 167.4 132.5C167.9 132.3 168.3 131.9 168.6 131.5C168.9 131.1 169.2 130.5 169.3 129.9C169.5 129.3 169.5 128.6 169.5 127.9C169.5 127.2 169.4 126.5 169.3 125.9C169.1 125.3 168.9 124.8 168.6 124.3C168.3 123.9 167.9 123.5 167.4 123.2C166.9 122.9 166.3 122.8 165.6 122.8C164.9 122.8 164.3 122.9 163.8 123.2C163.3 123.5 162.9 123.8 162.6 124.3C162.3 124.7 162 125.3 161.9 125.9C161.7 126.5 161.7 127.2 161.7 127.9C161.7 128.6 161.8 129.3 161.9 129.9C162.1 130.5 162.3 131.1 162.6 131.5C162.9 131.9 163.3 132.3 163.8 132.5C164.4 132.7 165 132.9 165.6 132.9Z" fill="#186287"/>
<path d="M181.7 125.4C181.7 126.3 181.4 127 180.9 127.6C180.4 128.1 179.7 128.5 178.8 128.6L181.7 133.4H180.8L177.9 128.7H174.9V133.4H174.2V122.2H178.1C178.7 122.2 179.2 122.3 179.6 122.4C180 122.6 180.4 122.8 180.7 123.1C181 123.4 181.2 123.7 181.4 124.1C181.6 124.5 181.7 125 181.7 125.4ZM180.9 125.4C180.9 124.6 180.7 124 180.2 123.5C179.7 123.1 179 122.8 178.1 122.8H175V127.9H178C178.9 127.9 179.6 127.7 180.1 127.2C180.7 126.9 180.9 126.2 180.9 125.4Z" fill="#186287"/>
<path d="M13.2 85.7C12.4 85.7 11.8 85.5 11.4 85.2C11 84.8 10.8 84.4 10.8 83.8V75.1C10.8 74.5 10.6 74 10.2 73.7C9.8 73.3 9.2 73.2 8.4 73.2C7.6 73.2 6.9 73.4 6.5 73.7C6.1 74.1 5.9 74.5 5.9 75.1C5.9 77.1 6 78.9 6.3 80.4C6.6 82 7 83.4 7.5 84.8C8 86.1 8.6 87.4 9.2 88.6C9.8 89.8 10.5 91 11.1 92.2C11.7 93.4 12.4 94.6 13 95.8C13.6 97 14.2 98.4 14.7 99.8C15.2 101.3 15.6 102.8 15.9 104.6C16.2 106.3 16.3 108.3 16.3 110.5C16.3 111.4 16.1 112.1 15.7 112.8C15.3 113.5 14.8 114.1 14.1 114.6C13.4 115.1 12.5 115.5 11.5 115.7C10.5 116 9.4 116.1 8.2 116.1C5.6 116.1 3.7 115.6 2.2 114.6C0.8 113.6 0.1 112.2 0.1 110.5V100.5C0.1 100.3 0.2 100.1 0.3 100C0.4 99.9 0.7 99.8 0.9 99.8H3.3C4.1 99.8 4.7 100 5.1 100.3C5.5 100.7 5.7 101.1 5.7 101.7V110.4C5.7 111 5.9 111.5 6.3 111.8C6.7 112.2 7.3 112.3 8.1 112.3C8.9 112.3 9.6 112.1 10 111.8C10.4 111.4 10.6 111 10.6 110.4C10.6 107.6 10.3 105.2 9.8 103.1C9.3 101 8.6 99.1 7.8 97.4C7 95.7 6.2 94.1 5.3 92.5C4.4 91 3.6 89.4 2.8 87.7C2 86 1.4 84.1 0.8 82.1C0.3 80.1 0 77.7 0 74.9C0 74 0.2 73.3 0.6 72.6C1.2 72.1 1.7 71.5 2.5 71C3.2 70.5 4.1 70.1 5.1 69.9C6.1 69.6 7.2 69.5 8.4 69.5C11 69.5 12.9 70 14.4 71C15.8 72 16.5 73.4 16.5 75.1V85.1C16.5 85.3 16.4 85.5 16.3 85.6C16.2 85.7 15.9 85.8 15.7 85.8H13.2V85.7Z" fill="#306184"/>
<path d="M24.2998 71.7C24.2998 71.2 24.4998 70.8 24.9998 70.5C25.3998 70.2 25.9998 70 26.7998 70H29.1998C29.4998 70 29.6998 70.1 29.7998 70.2C29.8998 70.3 29.9998 70.5 29.9998 70.7V114.4C29.9998 114.7 29.8998 115 29.5998 115.2C29.2998 115.4 28.8998 115.5 28.4998 115.5H25.8998C25.4998 115.5 25.0998 115.4 24.7998 115.2C24.4998 115 24.3998 114.7 24.3998 114.4V71.7H24.2998Z" fill="#306184"/>
<path d="M38.5998 115.6C38.2998 115.6 38.0998 115.5 37.9998 115.4C37.8998 115.3 37.7998 115.1 37.7998 114.9V70.7C37.7998 70.5 37.8998 70.3 37.9998 70.2C38.0998 70.1 38.3998 70 38.5998 70H40.9998C41.6998 70 42.2998 70.2 42.7998 70.5C43.1998 70.8 43.4998 71.2 43.4998 71.7V112H48.6998C49.2998 112 49.8998 112.2 50.2998 112.5C50.6998 112.8 50.8998 113.3 50.8998 113.9V115C50.8998 115.2 50.7998 115.4 50.5998 115.5C50.3998 115.6 50.1998 115.7 49.9998 115.7H38.5998V115.6Z" fill="#306184"/>
<path d="M58 115.6C57.7 115.6 57.5 115.5 57.4 115.4C57.3 115.3 57.2 115.1 57.1 114.9L52 70.7999C52 70.5999 52 70.3999 52.2 70.1999C52.4 69.9999 52.7 69.8999 53.1 69.8999H55.2C55.9 69.8999 56.5 70.0999 57 70.3999C57.5 70.6999 57.7 71.0999 57.8 71.5999L60.4 105.8L63 71.5999C63.1 71.0999 63.3 70.7999 63.8 70.3999C64.3 70.0999 64.8 69.8999 65.5 69.8999H67.6C68 69.8999 68.3 69.9999 68.5 70.1999C68.7 70.3999 68.8 70.5999 68.7 70.7999L63.6 114.9C63.6 115.1 63.5 115.2 63.3 115.4C63.2 115.5 63 115.6 62.7 115.6H58Z" fill="#306184"/>
<path d="M87.6 70C87.9 70 88.1 70.1 88.2 70.2C88.3 70.3 88.5 70.5 88.5 70.7V71.8C88.5 72.4 88.3 72.8 87.9 73.2C87.5 73.5 87 73.7 86.3 73.7H81.1V91.2H86.7C87 91.2 87.2 91.3 87.3 91.4C87.5 91.5 87.6 91.7 87.6 91.9V93C87.6 93.6 87.4 94 87 94.4C86.6 94.7 86.1 94.9 85.4 94.9H81.1V112H86.3C86.9 112 87.5 112.2 87.9 112.5C88.3 112.8 88.5 113.3 88.5 113.9V115C88.5 115.2 88.4 115.4 88.2 115.5C88 115.6 87.8 115.7 87.6 115.7H76.3C76 115.7 75.8 115.6 75.7 115.5C75.6 115.4 75.5 115.2 75.5 115V70.7C75.5 70.5 75.6 70.3 75.7 70.2C75.8 70.1 76.1 70 76.3 70H87.6Z" fill="#306184"/>
<path d="M103.3 70C104.5 70 105.6 70.1 106.6 70.4C107.6 70.7 108.4 71 109.1 71.5C109.8 72 110.3 72.6 110.7 73.3C111.1 74 111.3 74.8 111.3 75.6V91C111.3 92 111.1 92.7 110.6 93.3C110.1 93.9 109.4 94.4 108.6 94.8C109.5 95.2 110.2 95.7 110.6 96.2C111.1 96.8 111.3 97.6 111.3 98.5V114.8C111.3 115 111.2 115.2 111.1 115.3C111 115.4 110.7 115.5 110.5 115.5H108.1C107.3 115.5 106.7 115.3 106.3 115C105.9 114.6 105.7 114.2 105.7 113.6V98.6C105.7 98 105.5 97.5 105.1 97.2C104.7 96.8 104.1 96.7 103.2 96.7H100.8V113.7C100.8 114.3 100.6 114.7 100.2 115.1C99.8002 115.5 99.2002 115.6 98.4002 115.6H96.0002C95.7002 115.6 95.5002 115.5 95.4002 115.4C95.3002 115.3 95.2002 115.1 95.2002 114.9V70.7C95.2002 70.5 95.3002 70.3 95.4002 70.2C95.5002 70.1 95.8002 70 96.0002 70H103.3ZM100.8 73.6V93H103.2C104 93 104.7 92.8 105.1 92.4C105.5 92 105.7 91.6 105.7 91V75.6C105.7 75 105.5 74.6 105.1 74.2C104.7 73.8 104.1 73.6 103.3 73.6H100.8Z" fill="#306184"/>
<path d="M128.8 70C129.1 70 129.2 70.1 129.4 70.2C129.5 70.3 129.6 70.5 129.7 70.7L134.8 114.8C134.8 115 134.8 115.2 134.6 115.4C134.4 115.6 134.1 115.7 133.7 115.7H131.6C130.9 115.7 130.3 115.5 129.9 115.2C129.4 114.9 129.2 114.5 129.1 114L128.6 107.8H124.3L123.8 114C123.7 114.5 123.5 114.8 123 115.2C122.5 115.5 122 115.7 121.2 115.7H119.2C118.8 115.7 118.5 115.6 118.3 115.4C118.1 115.2 118 115 118.1 114.8L123.2 70.7C123.2 70.5 123.3 70.4 123.5 70.2C123.6 70.1 123.8 70 124.1 70H128.8ZM124.5 104.1H128.2L126.3 79.7L124.5 104.1Z" fill="#306184"/>
<path d="M149.6 70C152.1 70 154 70.5 155.5 71.5C157 72.5 157.7 73.9 157.7 75.6V110C157.7 111.7 157 113.1 155.6 114.1C154.2 115.1 152.2 115.6 149.6 115.6H142.3C142 115.6 141.8 115.5 141.7 115.4C141.6 115.3 141.5 115.1 141.5 114.9V70.7C141.5 70.5 141.6 70.3 141.7 70.2C141.8 70.1 142.1 70 142.3 70H149.6ZM152.1 75.6C152.1 75 151.9 74.6 151.5 74.2C151.1 73.8 150.5 73.6 149.6 73.6H147.2V111.9H149.6C150.4 111.9 151.1 111.7 151.5 111.3C151.9 110.9 152.1 110.5 152.1 109.9V75.6Z" fill="#306184"/>
<path d="M165.6 75.1C165.6 73.4 166.3 72 167.7 71C169.1 70 171.1 69.5 173.7 69.5C174.9 69.5 176 69.6 177 69.9C178 70.2 178.9 70.5 179.6 71C180.3 71.5 180.9 72.1 181.2 72.8C181.6 73.5 181.8 74.3 181.8 75.1V110.5C181.8 112.2 181.1 113.6 179.7 114.6C178.3 115.6 176.3 116.1 173.7 116.1C172.5 116.1 171.4 116 170.4 115.7C169.4 115.4 168.6 115.1 167.8 114.6C167.1 114.1 166.5 113.5 166.2 112.8C165.8 112.1 165.6 111.3 165.6 110.5V75.1ZM176.1 75.1C176.1 74.5 175.9 74 175.5 73.7C175.1 73.3 174.5 73.2 173.6 73.2C172.8 73.2 172.2 73.4 171.8 73.7C171.4 74.1 171.2 74.5 171.2 75.1V110.5C171.2 111.1 171.4 111.6 171.8 111.9C172.2 112.3 172.8 112.4 173.7 112.4C174.5 112.4 175.1 112.2 175.5 111.9C175.9 111.5 176.1 111.1 176.1 110.5V75.1Z" fill="#306184"/>
<path d="M98.7002 48.0001C98.8002 48.9001 98.4002 48.9001 97.9002 48.9001C97.7002 48.9001 97.5002 48.9001 97.4002 48.9001C90.8002 48.9001 84.2002 48.9001 77.6002 48.9001C77.3002 48.9001 77.0002 48.9001 76.8002 48.9001C76.4002 48.8001 76.2002 48.7001 76.2002 48.2001C76.2002 48.2001 76.2002 47.4001 77.1002 47.5001C79.0002 47.6001 91.4002 47.5001 97.6002 47.5001C97.7002 47.5001 97.9002 47.5001 98.0002 47.5001C98.5002 47.5001 98.7002 47.6001 98.7002 48.0001Z" fill="#56959E"/>
<path d="M115.7 37.3001C115.7 37.9001 115.7 38.4001 115.7 39.0001C115.7 39.4001 115.4 39.6001 115 39.6001C114.3 39.6001 114.3 39.3001 114.3 39.0001C114.3 38.8001 114.2 38.4001 114.3 38.2001C114.4 35.9001 114 33.7001 113 31.6001C112.1 29.9001 111.2 28.2001 109.7 26.8001C108 25.2001 106.2 23.8001 103.9 23.0001C103.7 22.9001 103.5 22.7001 103.4 22.5001C103.3 22.3001 103.4 22.0001 103.5 21.8001C103.7 21.5001 104.1 21.5001 104.3 21.6001C105.2 21.9001 106.1 22.3001 107 22.8001C109.5 24.2001 111.5 26.2001 113.2 28.6001C114.9 31.2001 115.5 34.2001 115.7 37.3001Z" fill="#FCAF1B"/>
<path d="M113 45.0999C113.5 45.0999 113.8 45.5999 113.7 46.0999C113.7 46.1999 113.6 46.3999 113.5 46.4999C110.7 51.2999 106.6 54.2999 101.1 55.0999C99.0998 55.3999 97.0998 55.2999 95.0998 55.3999C94.6998 55.3999 94.2998 55.1999 94.2998 54.7999C94.2998 54.2999 94.3998 53.9999 94.8998 53.9999C95.3998 53.9999 95.8998 53.9999 96.3998 53.9999C98.1998 53.9999 99.8998 53.9999 101.7 53.5999C106.1 52.5999 109.5 50.0999 111.9 46.2999C112.1 46.0999 112.2 45.7999 112.3 45.5999C112.6 45.1999 112.7 44.9999 113 45.0999Z" fill="#306184"/>
<path d="M89.1996 25.1C88.6996 25 88.3996 24.6 88.4996 24.1C88.5996 23.8 88.7996 23.7 89.2996 23.7C89.7996 23.7 90.3996 23.7 90.8996 23.7C93.1996 23.7 95.3996 23.7 97.6996 23.7C99.4996 23.7 101.3 24 103 24.5C104 24.8 104.9 25.2999 105.7 25.7999C106.8 26.4999 108.1 27.6 108.7 28.2C108.8 28.3 108.9 28.5 109.1 28.6C109.4 28.9 109.5 29.2 109.2 29.5C108.9 29.8 108.5 29.9 108.2 29.6C107.8 29.2 107.3 28.9 106.9 28.5C106.2 27.8 105.4 27.1999 104.5 26.7999C103.5 26.3999 102.6 25.9 101.6 25.6C100.5 25.3 99.2996 25.2 98.1996 25.1C96.9996 25 95.7996 25.1 94.5996 25.1C93.1996 25.1 91.7996 25.2 90.3996 25.2C89.9996 25.2 89.5996 25.2 89.1996 25.1Z" fill="#739663"/>
<path d="M102.2 29.1999C101.8 28.8999 101.7 28.3999 102 27.9999C102.2 27.6999 102.6 27.5999 103 27.8999C103.9 28.3999 104.8 28.9999 105.6 29.6999C110.6 34.0999 110.6 41.6999 105.6 46.1999C105.5 46.2999 105.4 46.2999 105.4 46.3999C105.1 46.6999 104.7 46.7999 104.3 46.5999C104 46.3999 103.9 46.1999 104 45.8999C104 45.6999 104.1 45.4999 104.3 45.2999C105.7 44.0999 106.7 42.6999 107.3 40.9999C108.3 37.8999 107.9 34.9999 106 32.3999C105.4 31.4999 104.7 30.5999 103.6 30.0999C103.2 29.8999 102.7 29.5999 102.2 29.1999Z" fill="#56959E"/>
<path d="M70.2 18.3C69.2 18.4 69.3 17.6 69.6 15.4C69.8 13.9 70.2 12.5 70.9 11.2C73.1 6.90005 76.6 4.40005 81.3 3.50005C82 3.40005 82.7 3.40005 83.4 3.30005C83.9 3.30005 84.3 3.60005 84.3 4.00005C84.3 4.50005 83.9 4.70005 83.5 4.80005C82.7 4.90005 81.8 4.90005 81 5.10005C75.9 6.10005 71.6 10.6 71 16.1C70.9 16.6 70.9 17.2 70.8 17.7C70.8 18 70.5 18.3 70.2 18.3Z" fill="#A3C1BF"/>
<path d="M79.7999 33C80.1999 33.2 80.3999 33.7 80.1999 34C79.9999 34.2 79.6999 34.4 79.1999 34.3C77.2999 33.9 75.4999 33 73.7999 31.9C72.1999 30.8 70.6999 29.5 69.5999 27.8C67.7999 25.2 66.5999 22.4 66.2999 19.2C66.2999 19.1 66.0999 18.2 66.7999 18.1C67.2999 18 67.4999 18.1 67.5999 18.5C67.6999 18.8 67.7999 19 67.7999 19.3C67.9999 21.2 68.5999 23.1 69.5999 24.8C70.4999 26.4 71.4999 27.9 72.8999 29.1C74.5999 30.4 76.6999 31.9 78.3999 32.3C78.4999 32.3 78.4999 32.3 78.5999 32.4C78.9999 32.7 79.3999 32.9 79.7999 33Z" fill="#306184"/>
<path d="M89.9002 22C87.7002 22 85.6002 22 83.4002 22C80.3002 22 78.2002 18.6 79.4002 15.8C79.5002 15.6 79.6002 15.4 79.7002 15.1C79.9002 14.8 80.3002 14.7 80.6002 14.8C81.0002 15 81.1002 15.3 80.9002 15.7C80.8002 15.9 80.7002 16.1 80.6002 16.3C79.8002 18.4 81.2002 20.5 83.5002 20.5C87.7002 20.5 91.8002 20.5 96.0002 20.5C96.3002 20.5 96.6002 20.5 96.9002 20.6C97.3002 20.7 97.5002 21 97.5002 21.4C97.5002 21.8 97.2002 22 96.8002 22C95.7002 22 94.6002 22 93.5002 22C92.4002 22 91.1002 22 89.9002 22Z" fill="#56959E"/>
<path d="M69.7998 45C69.7998 43.9 70.8998 44.2 70.9998 44.2C71.7998 44.2 84.4998 44.3 91.3998 44.3C91.5998 44.3 91.7998 44.3 91.9998 44.4C92.3998 44.5 92.5998 44.8 92.5998 45.2C92.5998 45.6 92.2998 45.8 91.9998 45.8C91.6998 45.8 91.3998 45.8 91.1998 45.8C84.4998 45.8 77.6998 45.8 70.9998 45.8C70.8998 45.8 70.6998 45.8 70.5998 45.8C70.0998 45.6 69.7998 45.7 69.7998 45Z" fill="#A3C1BF"/>
<path d="M75.9004 17.4C75.8004 13 79.6004 9.79995 83.3004 9.69995C84.1004 9.69995 84.5004 9.89995 84.5004 10.4C84.5004 10.9 84.2004 11.1 83.4004 11.2C80.4004 11.4 78.0004 13.4 77.5004 16.3C77.0004 19.1 78.2004 21.6 80.8004 23.1C81.0004 23.2 81.3004 23.3 81.6004 23.4C81.9004 23.5 82.1004 23.6 82.4004 23.7C82.8004 23.9 83.1004 24.2 82.9004 24.6C82.7004 25 82.4004 25.3 81.9004 25.1C81.2004 24.8 80.5004 24.6 79.8004 24.2C77.2004 22.6 75.9004 20.4 75.9004 17.4Z" fill="#FCAF1B"/>
<path d="M85.9004 33.9999C85.9004 33.6999 86.1004 33.4999 86.4004 33.4999C86.6004 33.4999 86.8004 33.3999 87.0004 33.3999C90.9004 33.3999 94.7004 33.3999 98.6004 33.3999C100.5 33.3999 101.8 34.3999 102.5 36.0999C103.3 37.7999 103 39.3999 101.9 40.8999C101.7 41.0999 101.5 41.2999 101.2 41.3999C101 41.3999 100.7 41.3999 100.5 41.1999C100.2 40.8999 100.3 40.5999 100.4 40.4999C100.5 40.3999 100.6 40.1999 100.7 40.0999C101.5 39.0999 101.7 37.9999 101.1 36.7999C100.5 35.5999 99.5004 34.9999 98.1004 34.9999C94.7004 34.9999 91.2004 34.9999 87.8004 34.9999C87.5004 34.9999 87.2004 34.9999 86.9004 34.9999C86.1004 34.7999 85.9004 34.6999 85.9004 33.9999Z" fill="#739663"/>
<path d="M112.2 10.4999C112.1 10.8999 111.7 11.0999 111.4 11.0999C104.5 11.0999 97.6002 11.0999 90.7002 11.0999H90.6002C90.3002 10.9999 90.2002 10.6999 90.2002 10.4999C90.2002 10.0999 90.5002 9.79995 90.9002 9.79995C91.1002 9.79995 91.2002 9.79995 91.4002 9.79995C98.0002 9.79995 104.6 9.79995 111.3 9.79995C112.1 9.69995 112.4 9.89995 112.2 10.4999Z" fill="#FCAF1B"/>
<path d="M73.0002 51.5999C72.9002 50.6999 73.4002 50.7 73.9002 50.7C74.0002 50.7 74.1002 50.7 74.3002 50.7C80.9002 50.7 87.4002 50.7 94.0002 50.7C94.2002 50.7 94.4002 50.7 94.6002 50.7C95.0002 50.8 95.2002 51 95.2002 51.4C95.2002 51.8 95.0002 52.0999 94.6002 52.0999C94.4002 52.0999 94.2002 52.0999 94.0002 52.0999C87.4002 52.0999 80.9002 52.0999 74.3002 52.0999C74.2002 52.0999 74.1002 52.0999 74.0002 52.0999C73.3002 52.0999 73.0002 51.9999 73.0002 51.5999Z" fill="#C4E7E7"/>
<path d="M90.1998 0.7C90.2998 0 91.0998 0 91.4998 0C97.8998 0 104.3 0 110.7 0C111 0 111.3 0 111.6 0C112 0.1 112.3 0.4 112.2 0.8C112.2 1.2 111.9 1.4 111.5 1.4C111.3 1.4 111.1 1.4 111 1.4C104.5 1.4 97.9998 1.4 91.5998 1.4C91.1998 1.5 90.0998 1.7 90.1998 0.7Z" fill="#C4E7E7"/>
<path d="M90.1006 4.10005V3.90005C90.1006 3.10005 91.4006 3.30005 92.0006 3.30005C98.4006 3.30005 104.801 3.30005 111.201 3.30005C112.201 3.30005 112.601 3.60005 112.501 4.10005C112.501 4.60005 112.101 4.80005 111.201 4.80005C104.701 4.80005 98.1006 4.80005 91.6006 4.80005C91.3006 4.80005 91.0006 4.80005 90.6006 4.70005C90.4006 4.60005 90.2006 4.50005 90.1006 4.10005Z" fill="#739663"/>
<path d="M99.2004 45.6001C98.9004 45.6001 98.6004 45.4001 98.5004 45.1001C98.4004 44.5001 98.6004 44.3001 99.4004 44.2001C102.7 43.6001 104.9 40.9001 104.8 37.6001C104.7 35.1001 103.4 33.3001 101.1 32.2001C100.3 31.8001 99.4004 31.8001 98.5004 31.6001C98.2004 31.5001 98.0004 31.3001 97.9004 31.1001C97.9004 31.0001 97.9004 30.9001 97.9004 30.8001C98.0004 30.5001 98.3004 30.2001 98.6004 30.2001C101.3 30.0001 103.5 31.3001 105 33.6001C106.8 36.3001 106.9 39.1001 105.2 41.9001C103.7 44.1001 101.8 45.5001 99.2004 45.6001Z" fill="#A3C1BF"/>
<path d="M87.2003 14.3C86.3003 14.3 86.2003 12.9 87.2003 12.8H87.3003C89.2003 12.8 91.1003 12.8 93.0003 12.8C97.7003 12.8 102.4 12.8 107.2 12.8C107.5 12.8 107.8 12.8 108 12.8C108.4 12.8 108.7 12.8 108.9 13.2C109 13.5 109 13.7 108.9 13.8C108.7 14.1 108.4 14.2 108.1 14.2C108 14.2 107.8 14.2 107.6 14.2C100.9 14.2 94.2003 14.2 87.5003 14.2C87.5003 14.3 87.3003 14.3 87.2003 14.3Z" fill="#56959E"/>
<path d="M112.6 37.9999C112.6 44.6999 107.9 50.1999 102.2 51.5999C102 51.6999 101.7 51.6999 101.5 51.6999C101.1 51.6999 100.8 51.4999 100.7 51.0999C100.6 50.6999 100.8 50.3999 101.2 50.2999C101.3 50.2999 101.4 50.2999 101.5 50.1999C106.6 48.6999 109.8 45.3999 110.9 40.2999C111.2 38.8999 111.2 37.3999 111 35.8999C111 35.5999 110.9 35.4999 110.9 35.2999C110.9 34.7999 111.2 34.6999 111.4 34.5999C111.8 34.3999 112.1 34.5999 112.2 34.9999C112.3 35.3999 112.4 35.7999 112.4 36.0999C112.5 36.7999 112.6 37.3999 112.6 37.9999Z" fill="#739663"/>
<path d="M84.4001 0.6C84.4001 1 84.1001 1.4 83.7001 1.4C82.6001 1.5 81.6001 1.6 80.6001 1.8C75.1001 3 71.2001 6.2 68.9001 11.4C68.8001 11.7 68.7001 12 68.5001 12.3C68.3001 12.7 68.0001 12.8 67.6001 12.6C67.2001 12.4 67.1001 12.1 67.2001 11.7C67.5001 10.9 67.8001 10.1 68.2001 9.4C70.9001 4.5 75.0001 1.4 80.5001 0.3C81.5001 0.1 82.6001 0 83.6001 0C84.2001 0 84.4001 0.2 84.4001 0.6Z" fill="#FCAF1B"/>
<path d="M72.9004 41.9001C72.9004 40.9001 73.4004 41.0001 73.9004 41.0001C74.4004 41.0001 74.8004 41.0001 75.3004 41.0001C81.4004 41.0001 87.5004 41.0001 93.6004 41.0001C93.9004 41.0001 94.2004 41.0001 94.5004 41.1001C94.8004 41.2001 95.1004 41.2001 95.1004 41.8001C95.1004 42.2001 94.8004 42.4001 94.4004 42.4001C94.2004 42.4001 93.9004 42.4001 93.7004 42.4001C87.2004 42.4001 80.7004 42.4001 74.3004 42.4001C74.2004 42.4001 74.1004 42.4001 74.0004 42.4001C73.2004 42.5001 72.9004 42.3001 72.9004 41.9001Z" fill="#FCAF1B"/>
<path d="M81.8001 28.3C81.0001 28.1 80.3001 27.9 79.7001 27.7C79.1001 27.5 78.5001 27.2 78.0001 26.9C77.7001 26.7 77.5001 26.4 77.4001 26.1C77.3001 25.6 77.7001 25.2 78.3001 25.4C78.7001 25.5 79.2001 25.7 79.6001 25.9C81.4001 26.8 83.2001 27 85.1001 26.9C85.3001 26.9 85.5001 26.9 85.7001 26.9C87.5001 26.9 90.9001 27 91.1001 27C92.7001 27 94.4001 27 96.0001 26.9C96.5001 26.9 96.8001 27.2 96.9001 27.6C96.9001 28 96.6001 28.4 96.1001 28.4C94.7001 28.4 93.4001 28.4 92.0001 28.4C90.1001 28.4 88.3001 28.4 86.4001 28.4C85.4001 28.5 82.4001 28.4 81.8001 28.3Z" fill="#A3C1BF"/>
<path d="M81.6005 6.79997C82.2005 6.99997 82.3005 7.79997 81.8005 8.09997C81.6005 8.19997 81.4005 8.29997 81.2005 8.29997C77.5005 9.49997 75.2005 11.9 74.4005 15.7C74.0005 17.4 74.2005 19.1 74.8005 20.8C75.2005 22 74.7005 22.4 74.3005 22.4C73.8005 22.3 73.6005 21.9 73.5005 21.5C72.6005 19 72.5005 16.5 73.4005 14C74.6005 10.4 77.2005 7.99997 80.8005 6.89997C81.0005 6.79997 81.3005 6.69997 81.6005 6.79997Z" fill="#306184"/>
<path d="M106.2 7.3001C106.2 7.7001 106 7.9001 105.4 8.0001C105.3 8.0001 105.2 8.0001 105.1 8.0001C99.4003 8.0001 93.8003 8.0001 88.1003 8.0001C87.8003 8.0001 87.5003 8.0001 87.2003 7.9001C86.8003 7.8001 86.6003 7.5001 86.7003 7.1001C86.8003 6.7001 87.0003 6.6001 87.4003 6.6001C87.8003 6.6001 88.1003 6.6001 88.5003 6.6001C94.0003 6.6001 99.5003 6.6001 105 6.6001C105.2 6.6001 105.3 6.6001 105.5 6.6001C105.9 6.6001 106.2 6.9001 106.2 7.3001Z" fill="#306184"/>
<path d="M91.5004 54.4999C91.6004 54.9999 91.2004 55.3999 90.7004 55.4999C90.5004 55.4999 90.3004 55.4999 90.1004 55.4999C83.5004 55.4999 76.9004 55.4999 70.3004 55.4999C70.0004 55.4999 69.7004 55.4999 69.5004 55.4999C69.1004 55.3999 68.9004 55.2999 68.9004 54.7999C68.9004 53.8999 70.0004 53.9999 70.3004 53.9999C77.0004 53.9999 83.6004 53.9999 90.3004 53.9999C90.4004 53.9999 90.6004 53.9999 90.7004 53.9999C91.2004 54.0999 91.5004 54.1999 91.5004 54.4999Z" fill="#739663"/>
<path d="M91.6003 30.2001C92.1003 30.3001 92.4003 30.8001 92.2003 31.3001C92.1003 31.6001 91.8003 31.7001 91.4003 31.7001C90.9003 31.7001 90.3003 31.6001 89.8003 31.6001C87.5003 31.5001 85.3003 31.3001 83.0003 31.2001C81.2003 31.1001 79.4003 30.7001 77.7003 30.0001C76.8003 29.6001 75.9003 29.0001 75.0003 28.4001C73.9003 27.6001 72.7003 26.3001 72.2003 25.5001C72.1003 25.3001 72.0003 25.2001 71.9003 25.0001C71.7003 24.7001 71.6003 24.3001 71.9003 23.9001C72.2003 23.5001 72.6003 23.5001 72.9003 23.9001C73.3003 24.3001 74.6003 25.7001 75.0003 26.1001C76.2003 27.5001 78.3003 28.4001 79.3003 28.7001C80.4003 29.1001 81.6003 29.3001 82.7003 29.5001C83.9003 29.7001 85.1003 29.7001 86.3003 29.7001C87.6003 29.9001 91.2003 30.1001 91.6003 30.2001Z" fill="#C4E7E7"/>
</svg>
