<svg width="187" height="120" viewBox="0 0 187 120" fill="none" xmlns="http://www.w3.org/2000/svg">
<path d="M13.3857 88.3055C12.5865 88.3055 11.8873 88.1057 11.4877 87.7061C11.0881 87.3066 10.8884 86.907 10.8884 86.3076V77.3172C10.8884 76.7179 10.6886 76.2184 10.289 75.8188C9.88942 75.4193 9.19017 75.2195 8.39102 75.2195C7.49199 75.2195 6.89263 75.4193 6.49305 75.8188C6.09348 76.2184 5.8937 76.7179 5.8937 77.3172C5.8937 79.3151 6.09348 81.2131 6.39316 82.8114C6.69284 84.4097 7.09241 85.9081 7.59188 87.3066C8.09134 88.7051 8.6907 90.0037 9.38995 91.2024C10.0892 92.4011 10.6886 93.6997 11.3878 94.8984C12.0871 96.0972 12.6864 97.3958 13.3857 98.5945C14.0849 99.8931 14.5844 101.292 15.1838 102.79C15.6832 104.288 16.0828 105.887 16.3825 107.685C16.6822 109.483 16.8819 111.481 16.8819 113.678C16.8819 114.577 16.6822 115.377 16.2826 116.076C15.883 116.775 15.2837 117.374 14.5844 117.874C13.8851 118.373 12.9861 118.773 11.8873 119.073C10.8884 119.372 9.68963 119.472 8.49092 119.472C5.8937 119.472 3.79594 118.973 2.29754 117.974C0.799145 116.975 0.0998931 115.576 0.0998931 113.778V103.489C0.0998931 103.289 0.199786 103.09 0.299679 102.99C0.399573 102.89 0.699252 102.79 0.998931 102.79H3.39637C4.19551 102.79 4.89476 102.99 5.29434 103.389C5.69391 103.789 5.8937 104.188 5.8937 104.788V113.778C5.8937 114.378 6.09348 114.877 6.49305 115.277C6.89263 115.676 7.59188 115.876 8.39102 115.876C9.29006 115.876 9.88942 115.676 10.289 115.277C10.6886 114.877 10.8884 114.378 10.8884 113.778C10.8884 110.881 10.5887 108.384 10.0892 106.286C9.58974 104.188 8.89049 102.191 8.09134 100.393C7.2922 98.5945 6.39316 96.9962 5.49412 95.3979C4.59508 93.7996 3.69605 92.2013 2.8969 90.4032C2.09776 88.7051 1.3985 86.7072 0.899038 84.6094C0.299679 82.6116 0 80.1143 0 77.3172C0 76.4182 0.199786 75.6191 0.599359 74.9198C0.998931 74.2206 1.59829 73.6212 2.29754 73.1217C2.99679 72.6223 3.89583 72.2227 4.89476 71.923C5.8937 71.6233 7.09241 71.5234 8.29113 71.5234C10.8884 71.5234 12.9861 72.0229 14.3846 73.0218C15.883 74.0208 16.5823 75.4193 16.5823 77.2174V87.5063C16.5823 87.7061 16.4824 87.9059 16.3825 88.0058C16.2826 88.1057 15.9829 88.2056 15.6832 88.2056H13.3857V88.3055Z" fill="#306184"/>
<path d="M24.7737 73.821C24.7737 73.3215 24.9735 72.9219 25.473 72.6223C25.9724 72.3226 26.5718 72.1228 27.271 72.1228H29.6685C29.9682 72.1228 30.1679 72.2227 30.3677 72.3226C30.5675 72.4225 30.5675 72.6223 30.5675 72.8221V117.874C30.5675 118.174 30.3677 118.473 30.0681 118.773C29.7684 118.973 29.3688 119.172 28.9692 119.172H26.2721C25.8725 119.172 25.473 119.073 25.1733 118.773C24.8736 118.573 24.6738 118.273 24.6738 117.874V73.821H24.7737Z" fill="#306184"/>
<path d="M39.4576 119.073C39.158 119.073 38.9582 118.973 38.7584 118.873C38.6585 118.773 38.5586 118.573 38.5586 118.373V72.8221C38.5586 72.6223 38.6585 72.4225 38.7584 72.3226C38.8583 72.2227 39.158 72.1228 39.4576 72.1228H41.955C42.7541 72.1228 43.3535 72.3226 43.753 72.6223C44.2525 72.9219 44.4523 73.3215 44.4523 73.821V115.277H49.7466C50.4459 115.277 50.9453 115.476 51.3449 115.776C51.7445 116.176 51.9443 116.575 51.9443 117.175V118.273C51.9443 118.473 51.8444 118.673 51.6446 118.773C51.4448 118.873 51.245 118.973 50.9453 118.973H39.4576V119.073Z" fill="#306184"/>
<path d="M59.436 119.073C59.1363 119.073 58.9365 118.973 58.8366 118.873C58.7367 118.773 58.6368 118.573 58.5369 118.373L53.4424 72.922C53.4424 72.7222 53.5423 72.5224 53.6422 72.3226C53.842 72.1228 54.1416 72.0229 54.5412 72.0229H56.639C57.3382 72.0229 57.9376 72.2227 58.437 72.5224C58.9365 72.8221 59.1363 73.2217 59.2362 73.7211L61.9333 108.983L64.6304 73.7211C64.7303 73.2217 64.9301 72.8221 65.4296 72.5224C65.929 72.2227 66.5284 72.0229 67.2276 72.0229H69.3254C69.725 72.0229 70.0246 72.1228 70.2244 72.3226C70.4242 72.5224 70.5241 72.7222 70.4242 72.922L65.2298 118.373C65.2298 118.573 65.1299 118.673 64.9301 118.873C64.8302 118.973 64.6304 119.073 64.3307 119.073H59.436Z" fill="#306184"/>
<path d="M89.9036 72.1228C90.2033 72.1228 90.4031 72.2227 90.6029 72.3226C90.8027 72.4225 90.9026 72.6223 90.9026 72.8221V73.9209C90.9026 74.5202 90.7028 75.0197 90.3032 75.3194C89.9036 75.719 89.4042 75.8189 88.7049 75.8189H83.4106V93.8995H89.2044C89.5041 93.8995 89.7038 93.9994 89.9036 94.0993C90.1034 94.1992 90.2033 94.399 90.2033 94.5988V95.6976C90.2033 96.2969 90.0035 96.7964 89.604 97.0961C89.2044 97.4957 88.7049 97.5956 88.0057 97.5956H83.5105V115.177H88.8048C89.5041 115.177 90.0035 115.377 90.4031 115.676C90.8027 116.076 91.0025 116.475 91.0025 117.075V118.174C91.0025 118.373 90.9026 118.573 90.7028 118.673C90.503 118.773 90.3032 118.873 90.0035 118.873H78.316C78.0164 118.873 77.8166 118.773 77.6168 118.673C77.5169 118.573 77.417 118.373 77.417 118.174V72.8221C77.417 72.6223 77.5169 72.4225 77.6168 72.3226C77.7167 72.2227 78.0164 72.1228 78.316 72.1228H89.9036Z" fill="#306184"/>
<path d="M106.187 72.1228C107.385 72.1228 108.584 72.2227 109.583 72.5224C110.582 72.8221 111.481 73.2216 112.18 73.7211C112.879 74.2206 113.479 74.8199 113.878 75.5192C114.278 76.2184 114.478 77.0176 114.478 77.9166V93.7996C114.478 94.7985 114.178 95.5977 113.679 96.1971C113.179 96.7964 112.48 97.2959 111.581 97.6955C112.48 98.095 113.179 98.5945 113.679 99.1938C114.178 99.7932 114.478 100.592 114.478 101.591V118.373C114.478 118.573 114.378 118.773 114.278 118.873C114.178 118.973 113.878 119.073 113.579 119.073H111.181C110.382 119.073 109.683 118.873 109.283 118.473C108.884 118.074 108.684 117.674 108.684 117.075V101.591C108.684 100.992 108.484 100.492 108.085 100.093C107.685 99.6933 107.086 99.4935 106.187 99.4935H103.689V117.075C103.689 117.674 103.49 118.174 103.09 118.473C102.69 118.873 101.991 119.073 101.192 119.073H98.7945C98.4949 119.073 98.2951 118.973 98.0953 118.873C97.9954 118.773 97.8955 118.573 97.8955 118.373V72.8221C97.8955 72.6223 97.9954 72.4225 98.0953 72.3226C98.1952 72.2227 98.4949 72.1228 98.7945 72.1228H106.187ZM103.49 75.8189V95.6976H105.987C106.886 95.6976 107.485 95.4978 107.885 95.0982C108.284 94.6987 108.484 94.1992 108.484 93.6997V77.8167C108.484 77.2174 108.284 76.7179 107.885 76.4182C107.485 76.0186 106.786 75.8189 105.987 75.8189H103.49Z" fill="#306184"/>
<path d="M132.358 72.1228C132.658 72.1228 132.858 72.2227 132.958 72.3226C133.057 72.4225 133.157 72.6223 133.257 72.8221L138.452 118.273C138.452 118.473 138.352 118.673 138.252 118.873C138.052 119.073 137.752 119.172 137.353 119.172H135.255C134.556 119.172 133.957 118.973 133.457 118.673C132.958 118.373 132.758 117.974 132.658 117.474L132.158 111.081H127.763L127.264 117.474C127.164 117.974 126.964 118.373 126.465 118.673C125.965 118.973 125.366 119.172 124.666 119.172H122.569C122.169 119.172 121.869 119.073 121.67 118.873C121.47 118.673 121.37 118.473 121.47 118.273L126.664 72.8221C126.664 72.6223 126.764 72.5224 126.964 72.3226C127.064 72.2227 127.264 72.1228 127.563 72.1228H132.358ZM128.063 107.185H131.859L129.961 82.1121L128.063 107.185Z" fill="#306184"/>
<path d="M153.835 72.1228C156.332 72.1228 158.43 72.6223 159.929 73.7211C161.427 74.72 162.226 76.1185 162.226 77.9166V113.279C162.226 115.077 161.527 116.475 160.028 117.474C158.53 118.473 156.532 118.973 153.935 118.973H146.443C146.143 118.973 145.944 118.873 145.744 118.773C145.644 118.673 145.544 118.473 145.544 118.273V72.8221C145.544 72.6223 145.644 72.4225 145.744 72.3226C145.844 72.2227 146.143 72.1228 146.443 72.1228H153.835ZM156.332 77.8167C156.332 77.2174 156.133 76.7179 155.733 76.4182C155.333 76.0186 154.734 75.8189 153.835 75.8189H151.338V115.277H153.835C154.734 115.277 155.333 115.077 155.733 114.677C156.133 114.278 156.332 113.778 156.332 113.279V77.8167Z" fill="#306184"/>
<path d="M170.218 77.3172C170.218 75.5191 170.917 74.1206 172.415 73.1217C173.914 72.1228 175.912 71.6233 178.609 71.6233C179.808 71.6233 181.006 71.7232 182.005 72.0229C183.004 72.3225 183.903 72.7221 184.702 73.2216C185.402 73.7211 186.001 74.3204 186.4 75.0197C186.8 75.7189 187 76.5181 187 77.4171V113.878C187 115.676 186.301 117.075 184.802 118.074C183.304 119.073 181.306 119.572 178.709 119.572C177.41 119.572 176.311 119.472 175.312 119.172C174.313 118.873 173.414 118.473 172.715 117.974C172.016 117.474 171.416 116.875 171.017 116.176C170.617 115.476 170.418 114.677 170.418 113.778V77.3172H170.218ZM181.106 77.3172C181.106 76.7178 180.906 76.2184 180.507 75.8188C180.107 75.4192 179.508 75.2195 178.609 75.2195C177.81 75.2195 177.11 75.4192 176.711 75.8188C176.311 76.2184 176.111 76.7178 176.111 77.3172V113.778C176.111 114.378 176.311 114.877 176.711 115.277C177.11 115.676 177.71 115.876 178.609 115.876C179.408 115.876 180.107 115.676 180.507 115.277C180.906 114.877 181.106 114.378 181.106 113.778V77.3172Z" fill="#306184"/>
<path d="M101.391 49.4471C101.491 50.3461 100.992 50.3461 100.592 50.446C100.392 50.446 100.193 50.446 99.9928 50.446C93.2001 50.446 86.4073 50.446 79.6146 50.446C79.3149 50.446 79.0153 50.446 78.7156 50.3461C78.316 50.2463 78.1162 50.1464 78.1162 49.547C78.1162 49.547 78.1162 48.7479 79.0153 48.8478C81.0131 48.9476 93.7994 48.8478 100.093 48.8478C100.193 48.8478 100.392 48.8478 100.492 48.8478C101.192 48.9476 101.391 49.0475 101.391 49.4471Z" fill="#56959E"/>
<path d="M118.872 38.3589C118.872 38.9582 118.872 39.5576 118.872 40.057C118.872 40.4566 118.573 40.7563 118.173 40.7563C117.474 40.7563 117.474 40.4566 117.374 40.1569C117.374 39.8573 117.274 39.5576 117.374 39.2579C117.474 36.8605 117.074 34.5629 116.075 32.4652C115.176 30.6671 114.177 28.9689 112.679 27.4705C110.881 25.7723 108.983 24.3738 106.685 23.5747C106.486 23.4748 106.286 23.275 106.186 23.0752C106.086 22.8754 106.186 22.5757 106.286 22.376C106.486 21.9764 106.885 22.0763 107.185 22.0763C108.084 22.4759 109.083 22.7755 109.982 23.275C112.579 24.7734 114.577 26.7713 116.275 29.2686C118.073 32.1655 118.772 35.1623 118.872 38.3589Z" fill="#FCAF1B"/>
<path d="M116.176 46.4503C116.675 46.5502 116.975 47.0496 116.875 47.4492C116.875 47.5491 116.775 47.7489 116.675 47.8488C113.778 52.7435 109.583 55.8402 103.889 56.7393C101.891 57.0389 99.7934 56.939 97.6956 57.0389C97.2961 57.0389 96.8965 56.8391 96.8965 56.3397C96.8965 55.8402 97.0963 55.5405 97.5957 55.5405C98.0952 55.5405 98.5947 55.5405 99.0941 55.5405C100.892 55.5405 102.69 55.5405 104.488 55.141C109.083 54.142 112.48 51.5448 114.977 47.649C115.177 47.4492 115.277 47.1495 115.377 46.9497C115.776 46.5502 115.876 46.3504 116.176 46.4503Z" fill="#306184"/>
<path d="M91.6022 25.8724C91.1027 25.7725 90.803 25.2731 90.9029 24.8735C91.0028 24.5738 91.2026 24.4739 91.7021 24.374C92.2015 24.374 92.8009 24.374 93.3004 24.374C95.5979 24.374 97.8955 24.374 100.293 24.374C102.191 24.374 103.989 24.6737 105.787 25.1732C106.786 25.4728 107.685 25.9723 108.584 26.5717C109.683 27.2709 111.081 28.3698 111.681 29.069C111.781 29.1689 111.88 29.3687 112.08 29.4686C112.38 29.7683 112.48 30.1678 112.18 30.4675C111.88 30.8671 111.481 30.8671 111.081 30.5674C110.582 30.1678 110.182 29.8681 109.783 29.4686C109.083 28.7693 108.284 28.17 107.385 27.7704C106.386 27.3708 105.387 26.7715 104.389 26.5717C103.29 26.272 102.091 26.1721 100.892 26.0722C99.6935 25.9723 98.3949 26.0722 97.1962 26.0722C95.7977 26.0722 94.2993 26.1721 92.9008 26.1721C92.4013 25.9723 92.0018 25.9723 91.6022 25.8724Z" fill="#739663"/>
<path d="M105.088 30.0679C104.688 29.7683 104.588 29.2688 104.888 28.8692C105.088 28.5695 105.487 28.4696 105.887 28.7693C106.886 29.2688 107.785 29.8681 108.584 30.5674C113.779 35.1625 113.779 42.9542 108.584 47.5492C108.484 47.6491 108.384 47.6491 108.384 47.749C108.085 48.0487 107.685 48.1486 107.286 47.9488C106.986 47.749 106.886 47.5492 106.986 47.2496C106.986 47.0498 107.086 46.85 107.286 46.6502C108.784 45.4515 109.783 43.9531 110.382 42.155C111.481 38.9584 110.982 35.9616 109.084 33.2645C108.484 32.3655 107.685 31.3665 106.586 30.967C105.987 30.7672 105.587 30.4675 105.088 30.0679Z" fill="#56959E"/>
<path d="M72.0233 18.88C71.0244 18.9799 71.1243 18.1807 71.424 15.8832C71.6238 14.3848 72.0233 12.8864 72.7226 11.4879C75.0201 7.09257 78.6163 4.49535 83.4112 3.49642C84.1104 3.39652 84.8097 3.39652 85.6088 3.29663C86.2082 3.29663 86.5078 3.59631 86.5078 3.99588C86.5078 4.59524 86.1083 4.69514 85.6088 4.79503C84.9095 4.99481 84.0105 4.99481 83.1115 5.1946C77.917 6.19353 73.4218 10.7886 72.8225 16.5824C72.7226 17.1818 72.7226 17.6812 72.6227 18.2806C72.6227 18.5803 72.4229 18.7801 72.0233 18.88Z" fill="#A3C1BF"/>
<path d="M81.9122 33.9637C82.3118 34.1635 82.5116 34.663 82.3118 34.9627C82.112 35.1624 81.8123 35.3622 81.3129 35.2623C79.315 34.7629 77.417 33.9637 75.8187 32.765C74.1206 31.6662 72.6222 30.2677 71.4234 28.5695C69.6254 25.8724 68.4267 22.9755 68.0271 19.7789C68.0271 19.679 67.8273 18.78 68.6264 18.6801C69.1259 18.5802 69.3257 18.6801 69.4256 19.1795C69.5255 19.4792 69.6254 19.7789 69.6254 19.9787C69.8252 21.9765 70.4245 23.8745 71.4234 25.6726C72.3225 27.2709 73.4213 28.8692 74.8198 30.0679C76.518 31.4664 78.8155 32.9648 80.5137 33.3644C80.6136 33.3644 80.6136 33.3644 80.7135 33.4643C81.1131 33.664 81.5127 33.8638 81.9122 33.9637Z" fill="#306184"/>
<path d="M92.3009 22.6756C90.1032 22.6756 87.9056 22.6756 85.608 22.6756C82.4114 22.5758 80.2138 19.1794 81.5124 16.2825C81.6123 16.0827 81.7122 15.783 81.912 15.5832C82.1118 15.2836 82.5113 15.1837 82.9109 15.2836C83.3105 15.4833 83.4104 15.783 83.3105 16.1826C83.2106 16.3824 83.1107 16.5822 83.0108 16.7819C82.2117 18.9796 83.7101 21.0774 86.0076 21.0774C90.303 21.0774 94.5984 21.0774 98.8938 21.0774C99.1935 21.0774 99.5931 21.0774 99.8927 21.1772C100.292 21.2771 100.492 21.5768 100.492 21.9764C100.492 22.376 100.192 22.5758 99.7929 22.5758C98.694 22.5758 97.4953 22.5758 96.3965 22.5758C94.8981 22.6756 93.5995 22.6756 92.3009 22.6756Z" fill="#56959E"/>
<path d="M71.623 46.3505C71.623 45.2517 72.7219 45.4515 72.9217 45.4515C73.7208 45.4515 86.9067 45.5514 93.8992 45.5514C94.099 45.5514 94.2988 45.5514 94.4986 45.6512C94.8981 45.7511 95.0979 46.0508 95.0979 46.4504C95.0979 46.85 94.7983 47.0498 94.3987 47.0498C94.099 47.0498 93.7993 47.0498 93.4996 47.0498C86.5071 47.0498 79.6145 47.0498 72.622 47.0498C72.5221 47.0498 72.3223 47.0498 72.2224 47.0498C71.9227 47.0498 71.623 47.0498 71.623 46.3505Z" fill="#A3C1BF"/>
<path d="M77.9169 17.8808C77.817 13.3856 81.7129 9.98926 85.5088 9.98926C86.4078 9.98926 86.7075 10.189 86.8074 10.6885C86.8074 11.188 86.5077 11.3878 85.6087 11.4877C82.512 11.6874 80.0147 13.7852 79.5152 16.782C79.0157 19.6789 80.2145 22.2761 82.9116 23.7745C83.1114 23.8744 83.411 23.9743 83.7107 24.0742C84.0104 24.1741 84.3101 24.274 84.5099 24.3739C84.9094 24.5737 85.2091 24.8733 85.0093 25.3728C84.8095 25.7724 84.41 26.0721 84.0104 25.9722C83.3111 25.6725 82.512 25.3728 81.8128 24.9732C79.2155 23.275 77.9169 20.9775 77.9169 17.8808Z" fill="#FCAF1B"/>
<path d="M88.306 35.0625C88.306 34.7628 88.5057 34.563 88.8054 34.563C89.0052 34.563 89.205 34.4631 89.4048 34.4631C93.4005 34.4631 97.3962 34.4631 101.392 34.4631C103.29 34.4631 104.688 35.562 105.488 37.2601C106.287 39.0582 105.987 40.6565 104.788 42.1549C104.589 42.3547 104.389 42.5545 104.089 42.6544C103.889 42.6544 103.59 42.6544 103.39 42.3547C102.99 42.055 103.19 41.7553 103.29 41.5555C103.39 41.4557 103.49 41.2559 103.59 41.156C104.389 40.157 104.589 38.9583 103.989 37.7596C103.39 36.5609 102.291 35.8616 100.892 35.8616C97.2963 35.8616 93.8001 35.8616 90.2039 35.8616C89.9043 35.8616 89.5047 35.8616 89.205 35.8616C88.4059 35.8616 88.2061 35.7617 88.306 35.0625Z" fill="#739663"/>
<path d="M115.377 10.7885C115.277 11.1881 114.877 11.4877 114.477 11.4877C107.385 11.4877 100.293 11.4877 93.2003 11.4877H93.1004C92.8007 11.3878 92.6009 11.0882 92.7008 10.7885C92.7008 10.3889 93.0005 10.0892 93.4 10.0892C93.5998 10.0892 93.6997 10.0892 93.8995 10.0892C100.692 10.0892 107.485 10.0892 114.378 10.0892C115.177 9.98933 115.476 10.1891 115.377 10.7885Z" fill="#FCAF1B"/>
<path d="M74.9201 53.143C74.8202 52.1441 75.3197 52.244 75.8191 52.244C75.919 52.244 76.0189 52.244 76.2187 52.244C83.0114 52.244 89.7043 52.244 96.497 52.244C96.6968 52.244 96.8966 52.244 97.1963 52.244C97.5958 52.3439 97.8955 52.5437 97.8955 52.9432C97.8955 53.3428 97.6957 53.6425 97.2961 53.7424C97.0964 53.7424 96.8966 53.7424 96.5969 53.7424C89.8042 53.7424 83.1113 53.7424 76.3186 53.7424C76.2187 53.7424 76.1188 53.7424 76.0189 53.7424C75.2198 53.7424 74.9201 53.6425 74.9201 53.143Z" fill="#C4E7E7"/>
<path d="M92.7007 0.699252C92.7007 0 93.5998 0 93.8994 0C100.492 0 107.085 0 113.678 0C113.978 0 114.378 0 114.677 0C115.077 0.0998931 115.376 0.399573 115.376 0.799145C115.376 1.19872 115.077 1.3985 114.677 1.3985C114.477 1.3985 114.278 1.3985 114.178 1.3985C107.485 1.3985 100.792 1.3985 94.1991 1.3985C93.6996 1.4984 92.6008 1.69818 92.7007 0.699252Z" fill="#C4E7E7"/>
<path d="M92.6016 4.2955V3.99582C92.6016 3.19668 94.0001 3.39647 94.4995 3.39647C101.092 3.39647 107.685 3.39647 114.278 3.39647C115.277 3.39647 115.677 3.69615 115.677 4.19561C115.677 4.69508 115.277 4.89486 114.278 4.89486C107.486 4.89486 100.793 4.89486 94.0001 4.89486C93.7004 4.89486 93.4007 4.89486 93.0011 4.79497C92.8014 4.79497 92.6016 4.59518 92.6016 4.2955Z" fill="#739663"/>
<path d="M101.891 47.0496C101.491 47.0496 101.192 46.8498 101.092 46.4503C100.892 45.8509 101.192 45.6511 101.991 45.5512C105.387 44.9519 107.685 42.1549 107.485 38.7585C107.385 36.1613 105.987 34.2633 103.689 33.1645C102.89 32.7649 101.991 32.7649 100.992 32.5651C100.692 32.4652 100.393 32.2654 100.393 31.9658C100.393 31.8659 100.393 31.766 100.393 31.6661C100.492 31.3664 100.792 31.0667 101.092 31.0667C103.889 30.8669 106.086 32.1656 107.685 34.563C109.483 37.36 109.583 40.2569 107.885 43.0539C106.586 45.4513 104.588 46.8498 101.891 47.0496Z" fill="#A3C1BF"/>
<path d="M89.5051 14.7843C88.5061 14.7843 88.5061 13.2859 89.5051 13.2859C89.5051 13.2859 89.605 13.2859 89.7048 13.2859C91.7027 13.2859 93.6007 13.2859 95.5985 13.2859C100.493 13.2859 105.288 13.2859 110.183 13.2859C110.483 13.2859 110.782 13.2859 111.082 13.2859C111.482 13.2859 111.781 13.2859 111.981 13.6855C112.081 13.9851 112.081 14.1849 111.981 14.3847C111.781 14.6844 111.482 14.7843 111.182 14.7843C111.082 14.7843 110.882 14.7843 110.682 14.7843C103.79 14.7843 96.8972 14.7843 90.0045 14.7843C89.8047 14.7843 89.7048 14.7843 89.5051 14.7843Z" fill="#56959E"/>
<path d="M115.677 39.1582C115.677 46.0508 110.782 51.6448 104.888 53.1432C104.688 53.2431 104.389 53.2431 104.189 53.2431C103.789 53.2431 103.49 53.0433 103.39 52.6437C103.29 52.2442 103.49 51.9445 103.889 51.7447C103.989 51.7447 104.089 51.7447 104.189 51.6448C109.383 50.1464 112.68 46.7501 113.878 41.3558C114.178 39.8574 114.178 38.359 113.978 36.8606C113.978 36.561 113.878 36.4611 113.878 36.2613C113.878 35.7618 114.178 35.6619 114.478 35.562C114.877 35.3622 115.177 35.562 115.377 35.9616C115.477 36.3612 115.577 36.7607 115.577 37.1603C115.677 37.9595 115.677 38.5588 115.677 39.1582Z" fill="#739663"/>
<path d="M86.7076 0.599359C86.7076 0.998931 86.408 1.3985 85.9085 1.3985C84.8097 1.4984 83.8107 1.59829 82.7119 1.79808C77.018 2.99679 72.9224 6.29327 70.6248 11.6875C70.5249 11.9872 70.4251 12.2869 70.2253 12.5865C70.0255 12.9861 69.7258 13.086 69.3262 12.8862C68.9267 12.6864 68.8268 12.3868 68.9267 11.9872C69.2263 11.188 69.526 10.3889 69.9256 9.58974C72.7226 4.59509 76.9181 1.3985 82.612 0.299679C83.7108 0.0998932 84.8097 0 85.8086 0C86.408 0 86.7076 0.199786 86.7076 0.599359Z" fill="#FCAF1B"/>
<path d="M74.8203 43.154C74.8203 42.1551 75.3198 42.255 75.8192 42.255C76.3187 42.255 76.7183 42.255 77.2177 42.255C83.511 42.255 89.8043 42.255 95.9977 42.255C96.2973 42.255 96.6969 42.255 96.9966 42.3549C97.2963 42.4548 97.5959 42.4548 97.5959 43.154C97.5959 43.5536 97.2963 43.7534 96.8967 43.8533C96.597 43.8533 96.3972 43.8533 96.0975 43.8533C89.4047 43.8533 82.7119 43.8533 76.1189 43.8533C76.019 43.8533 75.9191 43.8533 75.8192 43.8533C75.12 43.7534 74.8203 43.5536 74.8203 43.154Z" fill="#FCAF1B"/>
<path d="M84.0108 29.1689C83.2116 28.9691 82.5124 28.7694 81.8131 28.5696C81.2138 28.3698 80.6144 28.0701 80.015 27.7704C79.7154 27.5706 79.5156 27.271 79.4157 26.9713C79.3158 26.4718 79.7154 26.0722 80.3147 26.272C80.8142 26.3719 81.2138 26.5717 81.6133 26.7715C83.4114 27.6705 85.3094 27.8703 87.3072 27.7704C87.507 27.7704 87.7068 27.7704 87.9066 27.7704C89.8046 27.7704 93.3008 27.8703 93.4007 27.8703C95.0989 27.8703 96.7971 27.8703 98.4953 27.7704C98.9947 27.7704 99.3943 28.0701 99.3943 28.4697C99.3943 28.9691 99.0946 29.2688 98.5952 29.3687C97.1967 29.3687 95.7982 29.3687 94.3997 29.3687C92.5017 29.3687 90.6037 29.3687 88.6059 29.3687C87.7068 29.3687 84.6101 29.2688 84.0108 29.1689Z" fill="#A3C1BF"/>
<path d="M83.8104 6.99255C84.4098 7.19234 84.5097 7.99148 84.0102 8.29116C83.8104 8.39105 83.6106 8.49095 83.4108 8.49095C79.6149 9.68966 77.2175 12.187 76.4183 16.0828C76.0187 17.8809 76.2185 19.5791 76.8179 21.3772C77.2175 22.5759 76.718 23.0753 76.3184 22.9755C75.819 22.8756 75.6192 22.476 75.5193 22.0764C74.6202 19.5791 74.5203 16.9819 75.4194 14.3846C76.718 10.6886 79.3152 8.29116 83.0113 7.09244C83.1111 6.99255 83.5107 6.89266 83.8104 6.99255Z" fill="#306184"/>
<path d="M109.183 7.49202C109.183 7.89159 108.983 8.09138 108.384 8.19127C108.284 8.19127 108.184 8.19127 108.084 8.19127C102.29 8.19127 96.3968 8.19127 90.603 8.19127C90.3033 8.19127 89.9037 8.19127 89.604 8.09138C89.2045 7.99148 89.0047 7.6918 89.1046 7.19234C89.2045 6.79276 89.4042 6.69287 89.8038 6.69287C90.2034 6.69287 90.5031 6.69287 90.9026 6.69287C96.5965 6.69287 102.191 6.69287 107.884 6.69287C108.084 6.69287 108.184 6.69287 108.384 6.69287C108.784 6.79276 109.183 7.09244 109.183 7.49202Z" fill="#306184"/>
<path d="M93.9997 56.1401C94.0996 56.6395 93.7 57.0391 93.2006 57.139C93.0008 57.139 92.801 57.139 92.6012 57.139C85.8085 57.139 79.0157 57.139 72.223 57.139C71.9233 57.139 71.6236 57.139 71.324 57.0391C70.9244 56.9392 70.7246 56.8393 70.7246 56.2399C70.7246 55.3409 71.8234 55.4408 72.1231 55.4408C79.0157 55.4408 85.9084 55.4408 92.7011 55.4408C92.801 55.4408 93.0008 55.4408 93.1007 55.4408C93.7 55.6406 93.8998 55.8404 93.9997 56.1401Z" fill="#739663"/>
<path d="M94.0995 31.0669C94.5989 31.1668 94.8986 31.7661 94.6988 32.2656C94.5989 32.5653 94.2992 32.6652 93.7998 32.6652C93.3003 32.6652 92.701 32.5653 92.2015 32.5653C89.904 32.4654 87.5065 32.2656 85.209 32.1657C83.311 32.0658 81.5129 31.6662 79.8147 30.967C78.8158 30.5674 77.9168 29.968 77.1176 29.2688C76.0188 28.4696 74.7202 27.171 74.2207 26.272C74.1208 26.0722 74.0209 25.9723 73.921 25.7725C73.6214 25.373 73.6214 25.0733 73.921 24.6737C74.2207 24.2741 74.6203 24.2741 75.0199 24.6737C75.4194 25.0733 76.7181 26.4718 77.1176 26.8714C78.4162 28.2699 80.514 29.2688 81.5129 29.5685C82.6117 29.968 83.8105 30.1678 85.0092 30.3676C86.2079 30.5674 87.5065 30.5674 88.7052 30.5674C90.0038 30.8671 93.6999 30.967 94.0995 31.0669Z" fill="#C4E7E7"/>
</svg>
