<svg width="96" height="107" viewBox="0 0 96 107" fill="none" xmlns="http://www.w3.org/2000/svg">
<path d="M62.8706 92.5402C63.0634 94.2753 62.2922 94.2753 61.3282 94.2753C60.9426 94.2753 60.5571 94.2753 60.3643 94.2753C47.6399 94.2753 34.9156 94.2753 22.1913 94.2753C21.6129 94.2753 21.0345 94.2753 20.6489 94.2753C19.8778 94.0826 19.4922 93.8898 19.4922 92.9258C19.4922 92.9258 19.4922 91.3835 21.2273 91.5762C24.8904 91.769 48.7967 91.5762 60.7499 91.5762C60.9426 91.5762 61.3282 91.5762 61.521 91.5762C62.485 91.5762 62.8706 91.769 62.8706 92.5402Z" fill="#56959E"/>
<path d="M95.6449 71.9118C95.6449 73.0686 95.6449 74.0326 95.6449 75.1893C95.6449 75.9605 95.0666 76.3461 94.2954 76.3461C92.9458 76.3461 92.9458 75.7677 92.9458 75.1893C92.9458 74.8037 92.753 74.0326 92.9458 73.647C93.1386 69.2128 92.3675 64.9713 90.4395 60.9227C88.7044 57.6452 86.9693 54.3677 84.0774 51.6686C80.7999 48.5839 77.3296 45.8848 72.8954 44.3425C72.5098 44.1497 72.1242 43.7641 71.9314 43.3785C71.7386 42.9929 71.9314 42.4146 72.1242 42.029C72.5098 41.4506 73.281 41.4506 73.6666 41.6434C75.4017 42.2218 77.1368 42.9929 78.872 43.9569C83.6918 46.656 87.5476 50.5119 90.8251 55.1389C94.1026 60.1515 95.2594 65.9353 95.6449 71.9118Z" fill="#FCAF1B"/>
<path d="M90.6323 86.9493C91.5963 86.9493 92.1747 87.9132 91.9819 88.8772C91.9819 89.07 91.7891 89.4556 91.5963 89.6484C86.1981 98.9024 78.2936 104.686 67.69 106.229C63.8341 106.807 59.9783 106.614 56.1224 106.807C55.3512 106.807 54.5801 106.421 54.5801 105.65C54.5801 104.686 54.7729 104.108 55.7368 104.108C56.7008 104.108 57.6648 104.108 58.6287 104.108C62.099 104.108 65.3765 104.108 68.8467 103.337C77.3296 101.409 83.8846 96.5889 88.5116 89.2628C88.8972 88.8772 89.09 88.2988 89.2828 87.9132C89.6684 87.1421 90.054 86.7565 90.6323 86.9493Z" fill="#306184"/>
<path d="M44.5554 48.391C43.5915 48.1982 43.0131 47.427 43.2059 46.4631C43.3987 45.8847 43.7843 45.6919 44.7482 45.6919C45.7122 45.6919 46.8689 45.6919 47.8329 45.6919C52.2671 45.6919 56.5086 45.6919 60.9428 45.6919C64.4131 45.6919 67.8834 46.2703 71.1608 47.2342C73.0888 47.8126 74.8239 48.7766 76.3662 49.7405C78.487 51.0901 80.9933 53.2108 82.15 54.3676C82.3428 54.5604 82.5356 54.9459 82.9212 55.1387C83.4996 55.7171 83.6924 56.2955 83.114 56.8739C82.5356 57.4523 81.7645 57.645 81.1861 57.0667C80.4149 56.2955 79.4509 55.7171 78.6798 54.9459C77.3302 53.5964 75.7879 52.4396 74.0527 51.6685C72.1248 50.8973 70.3897 49.9333 68.4617 49.355C66.341 48.7766 64.0275 48.5838 61.9068 48.391C59.5933 48.1982 57.2798 48.391 54.9662 48.391C52.2671 48.391 49.568 48.5838 46.8689 48.5838C46.0978 48.5838 45.3266 48.5838 44.5554 48.391Z" fill="#739663"/>
<path d="M69.8107 56.2955C69.0396 55.7171 68.8468 54.7531 69.4252 53.982C69.8107 53.4036 70.5819 53.2108 71.3531 53.7892C73.0882 54.7531 74.8234 55.9099 76.3657 57.2594C86.0054 65.7423 86.0054 80.3946 76.3657 89.0703C76.1729 89.263 75.9801 89.263 75.9801 89.4558C75.4017 90.0342 74.6306 90.227 73.8594 89.8414C73.281 89.4558 73.0882 89.0703 73.281 88.4919C73.281 88.1063 73.4738 87.7207 73.8594 87.3351C76.5585 85.0216 78.4864 82.3225 79.6432 79.045C81.5711 73.0684 80.7999 67.4775 77.1369 62.4648C75.9801 60.7297 74.6306 58.9946 72.5099 58.0306C71.5459 57.645 70.5819 57.0666 69.8107 56.2955Z" fill="#56959E"/>
<path d="M7.92386 35.2812C5.99594 35.474 6.18873 33.9317 6.76711 29.6902C7.15269 26.7983 7.92386 24.0992 9.27341 21.5929C13.5149 13.3028 20.2626 8.48303 29.3239 6.74789C30.6734 6.5551 32.023 6.5551 33.3725 6.3623C34.3365 6.3623 35.1076 6.94068 35.1076 7.71185C35.1076 8.67582 34.3365 9.0614 33.5653 9.2542C32.023 9.44699 30.2878 9.44699 28.7455 9.83258C18.9131 11.7605 10.623 20.4362 9.4662 31.0398C9.27341 32.0037 9.27341 33.1605 9.08062 34.1245C9.08062 34.7029 8.50224 35.2812 7.92386 35.2812Z" fill="#A3C1BF"/>
<path d="M26.4325 63.6218C27.2037 64.0074 27.5893 64.9714 27.2037 65.5498C26.8181 65.9354 26.2397 66.3209 25.2758 66.1281C21.6127 65.357 18.1424 63.6218 14.8649 61.5011C11.7803 59.3804 8.88836 56.8741 6.76764 53.5966C3.29737 48.584 0.983857 43.1858 0.405479 37.0164C0.405479 36.8236 0.0198931 35.0885 1.36944 34.8957C2.33341 34.7029 2.71899 34.8957 2.91179 35.6669C3.10458 36.2453 3.29737 36.6308 3.29737 37.2092C3.68296 40.8723 4.83971 44.5353 6.76764 47.8128C8.50278 50.8975 10.4307 53.7894 13.1298 56.1029C16.4073 58.6092 20.4559 61.5011 23.7334 62.2723C23.9262 62.2723 23.9262 62.2723 24.119 62.4651C25.083 63.0435 25.6613 63.429 26.4325 63.6218Z" fill="#306184"/>
<path d="M45.9047 42.4143C41.6633 42.4143 37.6147 42.4143 33.3732 42.4143C27.3966 42.4143 23.348 35.8594 25.6615 30.4612C25.8543 30.0756 26.0471 29.69 26.2399 29.1116C26.6255 28.5332 27.3966 28.3404 27.975 28.5332C28.7462 28.9188 28.939 29.4972 28.5534 30.2684C28.3606 30.654 28.1678 31.0395 27.975 31.4251C26.4327 35.4738 29.1318 39.5224 33.566 39.5224C41.6633 39.5224 49.5678 39.5224 57.6651 39.5224C58.2435 39.5224 58.8219 39.5224 59.4002 39.7152C60.1714 39.908 60.557 40.4864 60.557 41.2576C60.557 42.0287 59.9786 42.4143 59.2074 42.4143C57.0867 42.4143 54.966 42.4143 52.8453 42.4143C50.7246 42.4143 48.411 42.4143 45.9047 42.4143Z" fill="#56959E"/>
<path d="M7.3457 86.7567C7.3457 84.636 9.46642 85.2144 9.65922 85.2144C11.2016 85.2144 35.6862 85.4072 48.9889 85.4072C49.3745 85.4072 49.7601 85.4072 50.1457 85.6C50.9169 85.7928 51.3025 86.3711 51.3025 87.1423C51.3025 87.9135 50.7241 88.2991 50.1457 88.2991C49.5673 88.2991 48.9889 88.2991 48.6034 88.2991C35.6862 88.2991 22.5763 88.2991 9.65922 88.2991C9.46642 88.2991 9.08084 88.2991 8.88805 88.2991C7.92408 87.9135 7.3457 88.1063 7.3457 86.7567Z" fill="#A3C1BF"/>
<path d="M18.9131 33.546C18.9131 25.0631 26.0464 18.8937 33.1798 18.7009C34.7221 18.7009 35.4933 19.0865 35.4933 20.0505C35.4933 21.0144 34.9149 21.4 33.3725 21.5928C27.5888 21.9784 22.9617 25.8343 21.9978 31.4253C21.0338 36.8235 23.3473 41.6433 28.3599 44.5352C28.7455 44.728 29.3239 44.9207 29.9023 45.1135C30.4807 45.3063 30.8662 45.4991 31.4446 45.6919C32.2158 46.0775 32.7942 46.6559 32.4086 47.4271C32.023 48.1982 31.4446 48.7766 30.4807 48.391C29.1311 47.8126 27.7816 47.4271 26.432 46.6559C21.4194 43.5712 18.9131 39.3298 18.9131 33.546Z" fill="#FCAF1B"/>
<path d="M38.3859 65.5493C38.3859 64.971 38.7715 64.5854 39.3499 64.5854C39.7355 64.5854 40.1211 64.3926 40.5067 64.3926C48.0256 64.3926 55.3517 64.3926 62.8706 64.3926C66.5337 64.3926 69.04 66.3205 70.3895 69.598C71.9319 72.8755 71.3535 75.9601 69.2328 78.852C68.8472 79.2376 68.4616 79.6232 67.8832 79.816C67.4976 79.816 66.9193 79.816 66.5337 79.4304C65.9553 78.852 66.1481 78.2737 66.3409 78.0809C66.5337 77.8881 66.7265 77.5025 66.9193 77.3097C68.4616 75.3818 68.8472 73.261 67.6904 70.9475C66.5337 68.634 64.6058 67.4773 61.9067 67.4773C55.3517 67.4773 48.604 67.4773 42.049 67.4773C41.4706 67.4773 40.8922 67.4773 40.3139 67.4773C38.5787 67.0917 38.1931 66.8989 38.3859 65.5493Z" fill="#739663"/>
<path d="M89.0902 20.2431C88.8974 21.0143 88.1262 21.3998 87.5479 21.3998C74.2452 21.3998 60.9424 21.3998 47.6397 21.3998H47.447C46.8686 21.207 46.6758 20.6287 46.6758 20.2431C46.6758 19.4719 47.2542 18.8935 48.0253 18.8935C48.4109 18.8935 48.6037 18.8935 48.9893 18.8935C61.7136 18.8935 74.4379 18.8935 87.3551 18.8935C88.7046 18.7007 89.283 19.0863 89.0902 20.2431Z" fill="#FCAF1B"/>
<path d="M13.3227 99.481C13.1299 97.7458 14.0938 97.7458 15.0578 97.7458C15.2506 97.7458 15.4434 97.7458 15.829 97.7458C28.5533 97.7458 41.0848 97.7458 53.8092 97.7458C54.1947 97.7458 54.5803 97.7458 54.9659 97.7458C55.7371 97.9386 56.1227 98.3242 56.1227 99.0954C56.1227 99.8666 55.7371 100.445 54.9659 100.445C54.5803 100.445 54.1947 100.445 53.8092 100.445C41.0848 100.445 28.5533 100.445 15.829 100.445C15.6362 100.445 15.4434 100.445 15.2506 100.445C13.901 100.445 13.5155 100.252 13.3227 99.481Z" fill="#C4E7E7"/>
<path d="M46.6754 1.34955C46.6754 0 48.4106 0 48.9889 0C61.3277 0 73.6664 0 86.0052 0C86.5835 0 87.1619 0 87.7403 0C88.7043 0.192793 89.0898 0.771171 89.0898 1.73514C89.0898 2.50631 88.5115 2.89189 87.7403 2.89189C87.3547 2.89189 86.9691 2.89189 86.7763 2.89189C74.2448 2.89189 61.7133 2.89189 49.3745 2.89189C48.6033 2.89189 46.4826 3.27748 46.6754 1.34955Z" fill="#C4E7E7"/>
<path d="M46.4834 7.90444V7.32606C46.4834 5.78372 48.9897 6.16931 50.1465 6.16931C62.4852 6.16931 74.8239 6.16931 87.1627 6.16931C89.0906 6.16931 89.8618 6.74769 89.669 7.71165C89.669 8.67561 88.8978 9.0612 87.1627 9.0612C74.6312 9.0612 61.9068 9.0612 49.3753 9.0612C48.7969 9.0612 48.2185 9.0612 47.4474 8.86841C46.869 8.86841 46.4834 8.67561 46.4834 7.90444Z" fill="#739663"/>
<path d="M63.8344 87.9135C63.2561 87.9135 62.6777 87.5279 62.4849 86.9495C62.2921 85.7928 62.6777 85.4072 64.22 85.2144C70.5822 84.0577 74.8236 78.8522 74.6308 72.4901C74.438 67.6703 71.9317 64.2 67.4975 62.0793C65.9551 61.3081 64.22 61.3081 62.4849 60.9225C61.9065 60.7297 61.5209 60.3441 61.3281 59.9586C61.3281 59.7658 61.3281 59.573 61.3281 59.3802C61.5209 58.8018 62.0993 58.2234 62.6777 58.2234C67.8831 57.8378 72.1245 60.3441 75.0164 64.7784C78.4867 69.9838 78.6795 75.382 75.402 80.7802C72.7029 85.0216 68.847 87.7207 63.8344 87.9135Z" fill="#A3C1BF"/>
<path d="M40.6998 27.5694C38.9647 27.5694 38.7719 24.8703 40.6998 24.6775H40.8926C44.5557 24.6775 48.2187 24.6775 51.8818 24.6775C60.943 24.6775 70.0043 24.6775 79.2584 24.6775C79.8367 24.6775 80.4151 24.6775 80.8007 24.6775C81.5719 24.6775 82.1502 24.6775 82.5358 25.4487C82.7286 26.027 82.7286 26.4126 82.5358 26.6054C82.1502 27.1838 81.5719 27.3766 80.9935 27.3766C80.8007 27.3766 80.4151 27.3766 80.0295 27.3766C67.1124 27.3766 54.1953 27.3766 41.2782 27.3766C41.2782 27.5694 40.8926 27.5694 40.6998 27.5694Z" fill="#56959E"/>
<path d="M89.6692 73.2614C89.6692 86.1785 80.6079 96.7821 69.6188 99.4812C69.2332 99.674 68.6548 99.674 68.2692 99.674C67.498 99.674 66.9197 99.2884 66.7269 98.5173C66.5341 97.7461 66.9197 97.1677 67.6908 96.9749C67.8836 96.9749 68.0764 96.9749 68.2692 96.7821C78.1016 93.8902 84.271 87.5281 86.3917 77.6956C86.9701 74.9965 86.9701 72.1046 86.5845 69.2128C86.5845 68.6344 86.3917 68.4416 86.3917 68.056C86.3917 67.092 86.9701 66.8992 87.3557 66.7064C88.1269 66.3209 88.7052 66.7064 88.898 67.4776C89.0908 68.2488 89.2836 69.02 89.2836 69.5983C89.6692 70.9479 89.6692 72.1046 89.6692 73.2614Z" fill="#739663"/>
<path d="M35.494 1.15676C35.494 1.92793 34.9156 2.6991 34.1444 2.6991C32.0237 2.89189 30.0958 3.08468 28.1679 3.47027C17.3715 5.78378 9.85254 11.9532 5.4183 21.9784C5.22551 22.5568 5.03272 23.1351 4.64713 23.7135C4.26155 24.4847 3.68317 24.6775 2.912 24.2919C2.14083 23.9063 1.94803 23.3279 2.14083 22.5568C2.7192 21.0144 3.29758 19.4721 4.06875 18.1225C9.27416 8.67567 17.1787 2.6991 27.7823 0.578378C29.7102 0.192793 31.8309 0 33.7588 0C34.9156 0 35.3012 0.385586 35.494 1.15676Z" fill="#FCAF1B"/>
<path d="M13.3232 80.7803C13.3232 78.8524 14.2872 79.0452 15.2512 79.0452C16.2151 79.0452 16.9863 79.0452 17.9503 79.0452C29.7106 79.0452 41.471 79.0452 53.2314 79.0452C53.8097 79.0452 54.3881 79.0451 54.9665 79.2379C55.5449 79.4307 56.1232 79.4307 56.1232 80.5875C56.1232 81.3587 55.5449 81.7443 54.7737 81.7443C54.3881 81.7443 53.8097 81.7443 53.4241 81.7443C40.8926 81.7443 28.3611 81.7443 16.0223 81.7443C15.8295 81.7443 15.6368 81.7443 15.444 81.7443C13.7088 81.937 13.3232 81.5515 13.3232 80.7803Z" fill="#FCAF1B"/>
<path d="M30.2888 54.5606C28.7464 54.175 27.3969 53.7894 26.2401 53.4038C25.0834 53.0182 23.9266 52.4398 22.9626 51.8615C22.3843 51.4759 21.9987 50.8975 21.8059 50.3191C21.6131 49.3552 22.3843 48.584 23.541 48.9696C24.3122 49.1624 25.2762 49.5479 26.0473 49.9335C29.5176 51.6687 32.9879 52.0543 36.6509 51.8615C37.0365 51.8615 37.4221 51.8615 37.8077 51.8615C41.278 51.8615 47.8329 52.0543 48.2185 52.0543C51.3032 52.0543 54.5807 52.0543 57.6654 51.8615C58.6293 51.8615 59.2077 52.4398 59.4005 53.211C59.4005 53.9822 58.8221 54.7534 57.8581 54.7534C55.159 54.7534 52.6527 54.7534 49.9536 54.7534C46.2906 54.7534 42.8203 54.7534 39.1572 54.7534C37.2293 54.9461 31.4455 54.7533 30.2888 54.5606Z" fill="#A3C1BF"/>
<path d="M29.9027 13.1099C31.0595 13.4955 31.2523 15.0378 30.2883 15.6162C29.9027 15.809 29.5172 16.0018 29.1316 16.0018C21.9982 18.3153 17.564 22.9423 16.0217 30.2684C15.2505 33.5459 15.6361 36.8234 16.7928 40.1009C17.564 42.4144 16.6 43.1856 15.8289 43.1856C14.8649 42.9928 14.4793 42.2216 14.2865 41.4504C12.5514 36.6306 12.3586 31.8108 14.0937 26.991C16.4072 20.0504 21.4199 15.4234 28.3604 13.3027C28.746 13.1099 29.3244 12.9171 29.9027 13.1099Z" fill="#306184"/>
<path d="M77.5226 14.0739C77.5226 14.8451 77.1371 15.2307 75.9803 15.4235C75.7875 15.4235 75.5947 15.4235 75.4019 15.4235C64.4127 15.4235 53.6163 15.4235 42.6271 15.4235C42.0488 15.4235 41.4704 15.4235 40.892 15.2307C40.1208 15.0379 39.7352 14.4595 39.928 13.6883C40.1208 12.9172 40.5064 12.7244 41.2776 12.7244C42.0488 12.7244 42.6271 12.7244 43.3983 12.7244C54.0019 12.7244 64.6055 12.7244 75.2091 12.7244C75.5947 12.7244 75.7875 12.7244 76.1731 12.7244C76.7515 12.7244 77.3298 13.3027 77.5226 14.0739Z" fill="#306184"/>
<path d="M48.9891 105.072C49.1819 106.036 48.4108 106.807 47.4468 107C47.0612 107 46.6756 107 46.29 107C33.5657 107 20.8414 107 8.11707 107C7.53869 107 6.96031 107 6.57473 107C5.80355 106.807 5.41797 106.614 5.41797 105.65C5.61076 103.915 7.73148 104.108 8.11707 104.108C21.0342 104.108 33.7585 104.108 46.6756 104.108C46.8684 104.108 47.254 104.108 47.4468 104.108C48.6036 104.301 48.9891 104.494 48.9891 105.072Z" fill="#739663"/>
<path d="M49.1821 58.2236C50.1461 58.4164 50.7245 59.3803 50.3389 60.3443C50.1461 60.9227 49.5677 61.1155 48.7965 61.1155C47.8326 61.1155 46.6758 60.9227 45.7118 60.9227C41.2776 60.7299 37.0362 60.3443 32.6019 60.1515C29.1317 59.9587 25.6614 59.1876 22.3839 57.838C20.6488 57.0668 18.9137 55.9101 17.1785 54.7533C15.0578 53.211 12.7443 50.7047 11.7803 49.1623C11.5875 48.7767 11.3947 48.584 11.2019 48.1984C10.8164 47.62 10.6236 46.8488 11.2019 46.0776C11.7803 45.3065 12.5515 45.3065 13.1299 46.0776C13.901 46.8488 16.4074 49.5479 17.1785 50.3191C19.492 53.0182 23.5407 54.7533 25.4686 55.3317C27.5893 56.1029 29.9028 56.4885 32.0236 56.874C34.3371 57.2596 36.6506 57.2596 38.9641 57.2596C41.6632 57.6452 48.4109 58.0308 49.1821 58.2236Z" fill="#C4E7E7"/>
</svg>
